Coordinates
version=1
nRows=6
nColumns=46
inDegrees=yes

Units are S.I. units (second, meters, Newtons, ...)
Angles are in degrees.

endheader
time	pelvis_tilt	pelvis_list	pelvis_rotation	pelvis_tx	pelvis_ty	pelvis_tz	bb_angle	bb_tx	bb_ty	bb_tz	hip_flexion_r	hip_adduction_r	hip_rotation_r	knee_angle_r	knee_angle_r_beta	ankle_angle_r	subtalar_angle_r	mtp_angle_r	crank_angle_r	hip_flexion_l	hip_adduction_l	hip_rotation_l	knee_angle_l	knee_angle_l_beta	ankle_angle_l	subtalar_angle_l	mtp_angle_l	crank_angle_l	lumbar_extension	lumbar_bending	lumbar_rotation	arm_flex_r	arm_add_r	arm_rot_r	elbow_flex_r	pro_sup_r	wrist_flex_r	wrist_dev_r	arm_flex_l	arm_add_l	arm_rot_l	elbow_flex_l	pro_sup_l	wrist_flex_l	wrist_dev_l
      0.00500000	    -17.22669473	     -6.37877399	     -0.79140614	      0.12334195	      1.13699065	     -0.23530568	      0.00000000	      0.50000000	      0.00000000	      0.25000000	     90.57410174	    -11.23646598	     -7.36871404	    102.76437429	      1.79357669	     27.04661091	      5.62205171	      0.00000000	      0.00000000	     49.84659241	    -14.48984325	     -4.54864001	     55.19794198	      0.96338583	      9.62866501	      5.78525133	      0.00000000	      0.00000000	    -53.58773345	      5.37693651	      6.90733067	     89.39092262	     -8.61539898	     28.34328842	     38.22595688	     23.04318384	      0.00000000	      0.00000000	     89.51640879	     -2.92622301	     30.31962165	     32.70223139	     22.04146290	      0.00000000	      0.00000000
      0.01000000	    -17.22951747	     -6.38152422	     -0.77277077	      0.12345533	      1.13698177	     -0.23526991	      0.00000000	      0.50000000	      0.00000000	      0.25000000	     90.56397416	    -11.23420838	     -7.37149580	    102.75063173	      1.79333683	     27.04301728	      5.58404215	      0.00000000	      0.00000000	     49.84912833	    -14.46119629	     -4.50154812	     55.21928281	      0.96375830	      9.63360179	      5.72790779	      0.00000000	      0.00000000	    -53.56915038	      5.38999028	      6.82193366	     89.39000746	     -8.51682973	     28.01806149	     37.51187478	     26.41808566	      0.00000000	      0.00000000	     89.51379902	     -3.05998235	     30.28780906	     32.12825964	     25.35202712	      0.00000000	      0.00000000
      0.01500000	    -17.18964383	     -6.33009128	     -0.76303808	      0.12355669	      1.13703817	     -0.23524208	      0.00000000	      0.50000000	      0.00000000	      0.25000000	     90.52697946	    -11.23360630	     -7.31404048	    102.75218548	      1.79336395	     27.09225837	      5.58183352	      0.00000000	      0.00000000	     49.79543852	    -14.41505811	     -4.52897687	     55.22480631	      0.96385470	      9.61438852	      5.68653766	      0.00000000	      0.00000000	    -53.61899611	      5.36337978	      6.83885817	     89.37334479	     -8.49947488	     27.34467997	     37.31645818	     28.07543910	      0.00000000	      0.00000000	     89.52031845	     -2.83353641	     29.70039002	     31.70728950	     26.92502028	      0.00000000	      0.00000000
      0.02000000	    -17.35382924	     -6.50126263	     -0.82627302	      0.12342656	      1.13644263	     -0.23462025	      0.00000000	      0.50000000	      0.00000000	      0.25000000	     90.69973017	    -11.06286395	     -7.47121336	    102.76730938	      1.79362791	     27.11330939	      5.57820445	      0.00000000	      0.00000000	     49.99234446	    -14.43145792	     -4.16599790	     55.20794901	      0.96356048	      9.77791810	      5.84052712	      0.00000000	      0.00000000	    -53.46751680	      5.41387578	      6.95918333	     89.35475282	     -8.50071820	     27.04714837	     37.41999922	     28.50884737	      0.00000000	      0.00000000	     89.50606270	     -2.87897717	     29.45310421	     31.85002339	     27.34968362	      0.00000000	      0.00000000
      0.02500000	    -17.24355001	     -6.47398083	     -0.74903821	      0.12351654	      1.13680727	     -0.23498295	      0.00000000	      0.50000000	      0.00000000	      0.25000000	     90.56919397	    -11.12094151	     -7.43858109	    102.76870523	      1.79365227	     27.13136061	      5.45473907	      0.00000000	      0.00000000	     49.93427537	    -14.49627302	     -4.27777371	     55.33928362	      0.96585270	      9.85851247	      5.60488571	      0.00000000	      0.00000000	    -53.61214269	      5.42130935	      7.01356394	     89.30871405	     -8.63148484	     26.51566779	     37.61976148	     29.19180449	      0.00000000	      0.00000000	     89.49893022	     -3.07821805	     29.05686235	     32.31054126	     28.05708481	      0.00000000	      0.00000000
      0.03000000	    -17.37857096	     -6.38787453	     -0.75905661	      0.12353945	      1.13650837	     -0.23484037	      0.00000000	      0.50000000	      0.00000000	      0.25000000	     90.75313822	    -11.09323729	     -7.32618417	    102.77633318	      1.79378541	     27.06292309	      5.29882791	      0.00000000	      0.00000000	     50.06979222	    -14.39957700	     -4.26605289	     55.36062900	      0.96622525	      9.73127755	      5.28848719	      0.00000000	      0.00000000	    -53.36358435	      5.33163155	      6.88838199	     89.32895535	     -8.50516947	     26.57479003	     36.80856717	     29.89966648	      0.00000000	      0.00000000	     89.51751051	     -2.88183416	     29.45081335	     31.45284660	     28.68907736	      0.00000000	      0.00000000
